<!-- <svg xmlns="http://www.w3.org/2000/svg" width="60" height="20" fill-rule="evenodd"><path d="M13.07 12.505H40.7c2.72 0 4.94 2.06 4.94 4.607V42.9c0 2.537-2.2 4.605-4.94 4.605H13.07c-2.72 0-4.94-2.06-4.94-4.605V17.1c0-2.535 2.207-4.595 4.94-4.595" fill="#5468ff"/><path d="M30.8 20.316v-1.2c-.001-.838-.73-1.518-1.63-1.518h-3.797c-.9 0-1.628.68-1.63 1.518v1.232c0 .137.136.233.285.2 1.074-.3 2.187-.435 3.305-.434 1.083 0 2.156.137 3.192.402.138.032.274-.063.274-.2m-10.407 1.57l-.65-.605a1.69 1.69 0 0 0-1.151-.445 1.69 1.69 0 0 0-1.151.445l-.775.722c-.306.284-.478.67-.478 1.072s.172.788.478 1.072l.638.595c.103.095.252.073.342-.022.376-.482.792-.936 1.243-1.36a11.61 11.61 0 0 1 1.47-1.166c.114-.064.125-.213.034-.3m6.93 3.8v5.2c0 .15.172.255.32.18l4.948-2.388c.113-.052.147-.18.1-.286-1.026-1.678-2.93-2.824-5.13-2.898-.114 0-.228.085-.228.2m0 12.503c-4.126 0-7.477-3.12-7.477-6.963s3.352-6.96 7.477-6.96 7.478 3.12 7.478 6.96-3.34 6.963-7.478 6.963m0-16.853c-5.86 0-10.612 4.426-10.612 9.9s4.753 9.88 10.612 9.88 10.612-4.426 10.612-9.892-4.742-9.88-10.612-9.88" fill="#fff"/><path d="M66.942 36.43c-4.265.02-4.265-3.442-4.265-3.993L62.67 19.47l2.602-.413v12.888c0 .313 0 2.293 1.67 2.3v2.186zM56.396 34.3c.798 0 1.4-.047 1.803-.126V31.54a5.33 5.33 0 0 0-.626-.127 6.16 6.16 0 0 0-.905-.067c-.287 0-.58.02-.872.067-.293.04-.56.12-.792.233s-.426.273-.566.478c-.146.206-.213.326-.213.638 0 .6.213.964.6 1.196s.912.352 1.57.352zm-.226-9.434c.858 0 1.583.107 2.17.32s1.058.5 1.404.9c.353.385.592.897.74 1.442a6.64 6.64 0 0 1 .226 1.8v6.684l-1.816.305a18.82 18.82 0 0 1-2.735.18 8.32 8.32 0 0 1-1.843-.193c-.56-.126-1.03-.332-1.43-.618a3 3 0 0 1-.924-1.102c-.22-.453-.333-1.1-.333-1.754 0-.638.126-1.043.373-1.482s.6-.797 1.018-1.076.924-.478 1.5-.598a8.6 8.6 0 0 1 1.77-.18c.287 0 .586.02.905.053a8.17 8.17 0 0 1 1.012.18v-.425c0-.298-.034-.584-.107-.85a1.83 1.83 0 0 0-.373-.71c-.175-.205-.412-.366-.705-.478a3.1 3.1 0 0 0-1.112-.2c-.6 0-1.144.073-1.644.16s-.912.186-1.225.298L52.73 25.4c.326-.113.8-.226 1.437-.34.625-.12 1.298-.173 2.016-.173zm51.383 9.36c.8 0 1.4-.047 1.802-.127v-2.64a5.25 5.25 0 0 0-.625-.127 6.17 6.17 0 0 0-.905-.067 5.56 5.56 0 0 0-.872.067c-.292.04-.56.12-.8.233a1.42 1.42 0 0 0-.566.478.9.9 0 0 0-.213.638c0 .6.213.964.6 1.196.392.24.912.352 1.57.352zm-.22-9.427c.858 0 1.583.106 2.17.32s1.058.5 1.404.9.592.897.738 1.442a6.64 6.64 0 0 1 .226 1.8v6.683l-1.816.306a18.8 18.8 0 0 1-2.735.18c-.672 0-1.3-.067-1.842-.193a3.89 3.89 0 0 1-1.431-.618 3 3 0 0 1-.925-1.102c-.22-.452-.333-1.1-.333-1.754a2.75 2.75 0 0 1 .373-1.482 3.13 3.13 0 0 1 1.018-1.076c.433-.278.925-.478 1.5-.598a8.56 8.56 0 0 1 1.771-.179c.286 0 .585.02.904.053s.653.093 1 .18v-.425a3.21 3.21 0 0 0-.106-.851 1.82 1.82 0 0 0-.373-.711c-.18-.206-.412-.366-.705-.478a3.08 3.08 0 0 0-1.112-.199c-.6 0-1.144.073-1.644.16s-.912.186-1.225.3l-.312-2.133c.326-.113.8-.225 1.437-.34a11.16 11.16 0 0 1 2.016-.172zm-7.812-1.236c.87 0 1.584-.705 1.584-1.575s-.706-1.574-1.584-1.574-1.583.705-1.583 1.574a1.58 1.58 0 0 0 1.583 1.575zm1.3 12.854h-2.615v-11.2l2.615-.412V36.43zm-4.584 0c-4.265.02-4.265-3.442-4.265-3.993l-.007-12.968 2.602-.413V31.94c0 .313 0 2.293 1.67 2.3zm-8.457-5.74c0-1.123-.246-2.06-.725-2.7-.48-.658-1.15-.983-2-.983s-1.53.325-2 .983-.713 1.587-.713 2.7c0 1.136.24 1.9.72 2.557.48.664 1.15 1 2 1s1.53-.332 2-1c.48-.664.718-1.42.718-2.557zm2.66-.007a6.29 6.29 0 0 1-.386 2.265c-.26.724-.625 1.342-1.097 1.854s-1.04.9-1.704 1.2a6.93 6.93 0 0 1-2.202.438c-.513-.007-1.53-.152-2.2-.438s-1.225-.678-1.697-1.2-.84-1.13-1.105-1.854-.4-1.388-.4-2.265.12-1.72.386-2.44a5.4 5.4 0 0 1 1.118-1.84 4.99 4.99 0 0 1 1.703-1.183c.66-.28 1.384-.412 2.17-.412s1.5.14 2.176.412a4.71 4.71 0 0 1 1.704 1.183 5.47 5.47 0 0 1 1.104 1.84c.28.717.42 1.562.42 2.44zm-19.582 0c0 1.1.24 2.298.718 2.803s1.098.757 1.857.757a3.95 3.95 0 0 0 1.171-.172 3.32 3.32 0 0 0 .892-.405v-6.45a10.19 10.19 0 0 0-1.718-.219c-.945-.027-1.663.36-2.168.976s-.752 1.7-.752 2.7zm7.233 5.128c0 1.774-.453 3.07-1.365 3.893s-2.302 1.236-4.178 1.236a17.93 17.93 0 0 1-3.247-.385l.42-2.06c.952.2 2.2.253 2.868.253 1.044 0 1.8-.213 2.235-.638s.665-1.056.665-1.894v-.425a7.91 7.91 0 0 1-1.018.386c-.42.126-.904.193-1.45.193-.718 0-1.37-.113-1.962-.34a4.09 4.09 0 0 1-1.524-.997c-.42-.438-.752-1-.985-1.647s-.353-1.833-.353-2.697c0-.8.127-1.827.373-2.505a4.78 4.78 0 0 1 1.098-1.747c.48-.485 1.065-.857 1.75-1.13a6.4 6.4 0 0 1 2.36-.444c.846 0 1.624.106 2.383.233l1.93.404v10.3z" fill="#5468ff"/></svg> -->





<svg xmlns="http://www.w3.org/2000/svg" width="77" height="19"><path d="M2.5067 0h14.0245c1.384.001 2.5058 1.1205 2.5068 2.5017V16.5c-.0014 1.3808-1.1232 2.4995-2.5068 2.5H2.5067C1.1232 18.9995.0014 17.8808 0 16.5V2.4958A2.495 2.495 0 01.735.7294 2.505 2.505 0 012.5068 0zM37.95 15.0695c-3.7068.0168-3.7068-2.986-3.7068-3.4634L34.2372.3576 36.498 0v11.1794c0 .2715 0 1.9889 1.452 1.994v1.8961zm-9.1666-1.8388c.694 0 1.2086-.0397 1.5678-.1088v-2.2934a5.3639 5.3639 0 00-1.3303-.1679 4.8283 4.8283 0 00-.758.0582 2.2845 2.2845 0 00-.688.2024c-.2029.0979-.371.2362-.4919.4142-.1268.1788-.185.2826-.185.5533 0 .5297.185.8359.5205 1.0375.3355.2016.7928.3053 1.365.3053v-.0008zm-.1969-8.1817c.7463 0 1.3768.092 1.8856.2767.5088.1838.9195.4428 1.2204.7717.3068.334.5147.7777.6423 1.251.1327.4723.196.991.196 1.5603v5.798c-.5235.1036-1.05.192-1.5787.2649-.7048.1037-1.4976.156-2.3774.156-.5832 0-1.1215-.0582-1.6016-.167a3.385 3.385 0 01-1.2432-.5364 2.6034 2.6034 0 01-.8037-.9565c-.191-.3922-.29-.9447-.29-1.5208 0-.5533.11-.905.3246-1.2863a2.7351 2.7351 0 01.8849-.9329c.376-.242.8029-.415 1.2948-.5187a7.4517 7.4517 0 011.5381-.156 7.1162 7.1162 0 011.6667.2024V8.886c0-.259-.0296-.5061-.093-.7372a1.5847 1.5847 0 00-.3245-.6158 1.5079 1.5079 0 00-.6119-.4158 2.6788 2.6788 0 00-.966-.173c-.5206 0-.9948.0634-1.4283.1384a6.5481 6.5481 0 00-1.065.259l-.2712-1.849c.2831-.0986.7048-.1964 1.2491-.2943a9.2979 9.2979 0 011.752-.1501v.0008zm44.6597 8.1193c.6947 0 1.2086-.0405 1.567-.1097v-2.2942a5.3743 5.3743 0 00-1.3303-.1679c-.2485 0-.503.0177-.7573.0582a2.2853 2.2853 0 00-.688.2024 1.2333 1.2333 0 00-.4918.4142c-.1268.1788-.1843.2826-.1843.5533 0 .5297.1843.8359.5198 1.0375.3414.2066.7927.3053 1.365.3053v.0009zm-.191-8.1767c.7463 0 1.3768.0912 1.8856.2759.5087.1847.9195.4436 1.2204.7717.3.329.5147.7786.6414 1.251a5.7248 5.7248 0 01.197 1.562v5.7972c-.3466.0742-.874.1602-1.5788.2648-.7049.1038-1.4976.1552-2.3774.1552-.5832 0-1.1215-.0573-1.6016-.167a3.385 3.385 0 01-1.2432-.5356 2.6034 2.6034 0 01-.8038-.9565c-.191-.3922-.2898-.9447-.2898-1.5216 0-.5533.1098-.905.3245-1.2854a2.7373 2.7373 0 01.8849-.9338c.376-.2412.8029-.4141 1.2947-.5178a7.4545 7.4545 0 012.325-.1097c.2781.0287.5672.081.879.156v-.3686a2.7781 2.7781 0 00-.092-.738 1.5788 1.5788 0 00-.3246-.6166 1.5079 1.5079 0 00-.612-.415 2.6797 2.6797 0 00-.966-.1729c-.5205 0-.9947.0633-1.4282.1384a6.5608 6.5608 0 00-1.065.259l-.2712-1.8498c.283-.0979.7048-.1957 1.2491-.2935a9.8597 9.8597 0 011.752-.1494zm-6.79-1.072c-.7576.001-1.373-.6103-1.3759-1.3664 0-.755.6128-1.3664 1.376-1.3664.764 0 1.3775.6115 1.3775 1.3664s-.6195 1.3664-1.3776 1.3664zm1.1393 11.1507h-2.2726V5.3409l2.2734-.3568v10.0845l-.0008.0017zm-3.984 0c-3.707.0168-3.707-2.986-3.707-3.4642L59.7069.3576 61.9685 0v11.1794c0 .2715 0 1.9889 1.452 1.994V15.0703zm-7.3512-4.979c0-.975-.2138-1.7873-.6305-2.3516-.4167-.571-.9998-.852-1.747-.852-.7454 0-1.3302.281-1.7452.852-.4166.5702-.6195 1.3765-.6195 2.3516 0 .9851.208 1.6473.6254 2.2183.4158.576.9998.8587 1.7461.8587.7454 0 1.3303-.2885 1.747-.8595.4158-.5761.6237-1.2315.6237-2.2184v.0009zm2.3132-.006c0 .7609-.1099 1.3361-.3356 1.9654a4.654 4.654 0 01-.9533 1.6076A4.214 4.214 0 0155.613 14.69c-.579.2412-1.4697.3795-1.9143.3795-.4462-.005-1.3303-.1324-1.9033-.3795a4.307 4.307 0 01-1.474-1.0316c-.4115-.4445-.7293-.9801-.9609-1.6076a5.3423 5.3423 0 01-.3465-1.9653c0-.7608.104-1.493.3356-2.1155a4.683 4.683 0 01.9719-1.5958 4.3383 4.3383 0 011.479-1.0257c.5739-.242 1.2043-.3567 1.8864-.3567.6829 0 1.3125.1197 1.8906.3567a4.1245 4.1245 0 011.4816 1.0257 4.7587 4.7587 0 01.9592 1.5958c.2426.6225.3643 1.3547.3643 2.1155zm-17.0198 0c0 .9448.208 1.9932.6238 2.431.4166.4386.955.6579 1.6142.6579.3584 0 .6998-.0523 1.0176-.1502.3186-.0978.5721-.2134.775-.3517V7.0784a8.8706 8.8706 0 00-1.4926-.1906c-.8206-.0236-1.4452.312-1.8847.8468-.4335.5365-.6533 1.476-.6533 2.3516v-.0008zm6.2863 4.4485c0 1.5385-.3938 2.662-1.1866 3.3773-.791.7136-2.0005 1.0712-3.6308 1.0712-.5958 0-1.834-.1156-2.8228-.334l.3643-1.7865c.8282.173 1.9202.2193 2.4932.2193.9077 0 1.555-.1847 1.943-.5533.388-.3686.578-.916.578-1.643v-.3687a6.8289 6.8289 0 01-.8848.3349c-.3634.1096-.786.167-1.261.167-.6246 0-1.1917-.0979-1.7055-.2944a3.5554 3.5554 0 01-1.3244-.8645c-.3642-.3796-.6541-.8579-.8561-1.4289-.2028-.571-.3068-1.59-.3068-2.339 0-.7034.1099-1.5856.3245-2.1735.2198-.5871.5316-1.0949.9542-1.515.4167-.42.9255-.743 1.5213-.98a5.5923 5.5923 0 012.052-.3855c.7353 0 1.4114.092 2.0707.2024.6592.1088 1.2204.2236 1.6776.35v8.945-.0008zM11.5026 4.2418v-.6511c-.0005-.4553-.3704-.8241-.8266-.8241H8.749c-.4561 0-.826.3688-.8265.824v.669c0 .0742.0693.1264.1445.1096a6.0346 6.0346 0 011.6768-.2362 6.125 6.125 0 011.6202.2185.1116.1116 0 00.1386-.1097zm-5.2806.852l-.3296-.3282a.8266.8266 0 00-1.168 0l-.393.3922a.8199.8199 0 000 1.164l.3237.323c.0524.0515.1268.0397.1733-.0117.191-.259.3989-.507.6305-.7372.2374-.2362.48-.4437.7462-.6335.0575-.0354.0634-.1155.017-.1687zm3.5159 2.069v2.818c0 .081.0879.1392.1622.0987l2.5102-1.2964c.0574-.0287.0752-.0987.0464-.1552a3.1237 3.1237 0 00-2.603-1.574c-.0575 0-.115.0456-.115.1097l-.0008-.0009zm.0008 6.789c-2.0933.0005-3.7915-1.6912-3.7947-3.7804C5.9468 8.0821 7.6452 6.39 9.7387 6.391c2.0932-.0005 3.7911 1.6914 3.794 3.7804a3.7783 3.7783 0 01-1.1124 2.675 3.7936 3.7936 0 01-2.6824 1.1054h.0008zM9.738 4.8002c-1.9218 0-3.6975 1.0232-4.6584 2.6841a5.359 5.359 0 000 5.3683c.9609 1.661 2.7366 2.6841 4.6584 2.6841a5.3891 5.3891 0 003.8073-1.5725 5.3675 5.3675 0 001.578-3.7987 5.3574 5.3574 0 00-1.5771-3.797A5.379 5.379 0 009.7387 4.801l-.0008-.0008z" fill="#5468ff" fill-rule="evenodd"></path></svg>